/* XPM */
static char *f00bce50c01f4f37e86fbcdc2c718991PY1F3TxIf740urCM[] = {
/* columns rows colors chars-per-pixel */
"32 32 2 1 ",
"  c #84553E",
". c #A66849",
/* pixels */
" .............. ............... ",
" .............. ................",
"............... ................",
"............... ................",
".............. ................ ",
".............. ................ ",
".............. ................ ",
"                                ",
"...... ................ ....... ",
"...... ................ ........",
"...... ................ ........",
"....... ................ .......",
"...... ................. .......",
"...... ................. .......",
"...... .................. ......",
"                                ",
"................ .............. ",
"................ .............. ",
"................ .............. ",
"................ ...............",
"................ ...............",
" ................ ..............",
" ................ ..............",
"                                ",
"...... .............. ..........",
"...... .............. ..........",
"....... ............. ..........",
"...... .............. ..........",
"...... ............... .........",
"..... ................ .........",
"..... ................ .........",
"                                "
};
