/* XPM */
static char *_a8cd23ce8df4e92cc14dfc355523a5afqoQJX5C8pPFUsTw[] = {
/* columns rows colors chars-per-pixel */
"32 32 6 1 ",
"  c black",
". c #33712E",
"X c #40AC38",
"o c #4F8A4A",
"O c #E4BC0D",
"+ c #EBE1B6",
/* pixels */
"oooooooooooooooooooooooooooooooo",
"ooooooooooooo     oooooooooooooo",
"oo.oooooooo  +++++  ooooooooo.oo",
"ooooooooo  ++OOOOOO   oooooooooo",
"oooooooo ++OOOOOOOOO   o.ooooooo",
"ooooooo +OOOOOOOOOOOO   oooooooo",
"ooooooo +OOOOOOOOOOOOO  oooooooo",
"oooooo +OOOOOOOOOOOOOOO  ooXoooo",
"ooooo +OOOOOOOOOOOOOOOOO  oooooo",
"ooooo +OOOOOOO++++OOOOOO  oooooo",
"ooooo +OOOOOO+OOOO OOOOO  oooooo",
"oooo +OOOOOOO+OOOO OOOOOO  ooXoo",
"ooXo +OOOOOOO+OOOO OOOOOO  ooooo",
"oooo +OOOOOOO+OOOO OOOOOO  ooooo",
"oooo +OOOOOOO+OOOO OOOOOO  ooooo",
"oooo +OOOOOOO+OOOO OOOOOO  ooooo",
"oooo +OOOOOOO+OOOO OOOOOO  Xoooo",
"oooo +OOOOOOO+OOOO OOOOOO  ooooo",
"oooo +OOOOOOO+OOOO OOOOOO  ooooo",
"oooo +OOOOOOO+OOOO OOOOOO  ooooo",
"oooo +OOOOOOO+OOOO OOOOOO  ooooo",
"ooooo +OOOOOO+OOOO OOOOO  oooooo",
"ooooo +OOOOOO+OOOO OOOOO  ooo.oo",
"ooooo +OOOOOO+OOOO OOOOO  oooooo",
"oooooo +OOOOOO    OOOOO  ooooooo",
"oXooooo +OOOOOOOOOOOOO  oooooooo",
"ooooooo +OOOOOOOOOOOOO  ooooo.oo",
"oooooooo ++OOOOOOOOO   ooooooooo",
"ooooo.ooo  +OOOOOOO   o.oooooooo",
"ooooooooooo  OOOOO  ooooooooXooo",
"ooooooooooooo     ooXooooooooooo",
"oooooooooooooooooooooooooooooooo"
};
