/* XPM */
static char *_4d6d3a80c1444f8a62daedf85fd90bdm25NgdM1qgmoGjyN[] = {
/* columns rows colors chars-per-pixel */
"32 32 13 1 ",
"  c #051604",
". c #0C1D0B",
"X c #082706",
"o c #33712E",
"O c #40AC38",
"+ c #4F8A4A",
"@ c #96933E",
"# c #96953F",
"$ c #969440",
"% c #B3AF44",
"& c #B4AF45",
"* c #B3B144",
"= c #D6D052",
/* pixels */
"++++++++++++++++++++++++++++++++",
"++++++++++++........++++++++++++",
"++o++++++...$$$$$$$$...++++++o++",
"++++++++.#$$$$@$$$$#$$$.++++++++",
"++++++..$$$$$$$$$$$$$$$$ .++++++",
"+++++.$$$$$$........$$$@$$.+++++",
"++++.$$$@$..&&&&&&&&..$$$$$.++++",
"++++.$#$$.&&&&&%&&&&&&.$$$$X++++",
"+++.$$$$.&&&&.. ...&&&*.$$$$.+++",
"++.$$$$.&&*..======..&&&.$$$$.++",
"++.$$$.&&&.==========.&&&.$$$.++",
"++.$$$.&&.============.&&.@$$X++",
"+.#$$.%&&.============.&&&.$$$.+",
"+.$$$.&&.====$$$$$=====.&&.$$$.+",
"+.$$$.&&.====$===$=$===.&& $$$.+",
"+.$$$.&&.====$===$==$==.&&.$$$.+",
"+.$$$.&&.====$=$$$$$=$=.&&.#$$.+",
"+.$$$.*&.====$===$==#==.&&.$$$.+",
"+.$$$.&&.====@===$=$===.&&.$$$.+",
"+.$$$.&&&.===$$$$$====.&&&.$$$.+",
"++.$@$.&&.============.&&.$$$.++",
"++.$$$.&&&.========== &&&.$$$.++",
"++.$$$$.&&&..======..&&&.#$$$ ++",
"+++.$$$$.%&&&......&&&&.$$$$.+++",
"++++.$$$$.&&&&%&&&&&&&.$$$$.++++",
"+O++.$$$$$..&&&&&&&&..$$$$$.++++",
"+++++.$$$$$$........$$$$$$.++o++",
"++++++..$$$$$$$$$$$$$$$$..++++++",
"+++++o++.$$$$$$$$$$$$$$ ++++++++",
"+++++++++...#$$$$$$$...+++++O+++",
"++++++++++++........O+++++++++++",
"++++++++++++++++++++++++++++++++"
};
