/* XPM */
static char *f7b50efb940e42c0aa398e82debc26d2poUyTyCnZP04gjPO[] = {
/* columns rows colors chars-per-pixel */
"32 32 3 1 ",
"  c #33712E",
". c #40AC38",
"X c #4F8A4A",
/* pixels */
"XXXXXXXXXXXXXXXXXXXXXXXXXXXXXXXX",
"XXXXXXXXXXXXXXXXXXXXXXXXXXXXXXXX",
"XX XXXXXXXXXXXXXXXXXXXXXXXXXX XX",
"XXXXXXXXX.XXXX XXXX.XXXXXXXXXXXX",
"XXXXXXXXXXXXXXXXXXXXXXXX XXXXXXX",
"XXXXXXXXXXXXXXXXXXXXXXX XXXXXXXX",
"XXXXXXXX XXXXXXXXXXXXXXXXXXXXXXX",
"XXXXXX.XXXXXXXX XXXXXXXXXXX.XXXX",
"XXXXXXXXXXXXXXX XXXXXX.XXXXXXXXX",
"XXXXXXXXXX.XXXXXXXXXXXXXXXXXXXXX",
"XXXXXXXXXXXXXXXXXXXXXXXXXXXXXXXX",
"XXXXXXXXXXXXXX.XXXXXXXXXXX XX.XX",
"XX.XXX XXXXXXXXXXXXX XXXXXXXXXXX",
"XXXXXXXXXX.XXXXXXXXX XXXXXXXXXXX",
"XXXXXXXXXXXXXXXXXXXXXXXXXX XXXXX",
"XXXXXXXXXXXXXXXX XXXXXXXXXXXXXXX",
"XXXXXXXXXXXXXXXXXXXXXXXXXXX.XXXX",
"XXXXXX.XXXXXXXXXXXXX.XXXXXXXXXXX",
"XXXXXXXXXXXXX XXXXXXXXXXXXXXXXXX",
"XXXXXXXXXXXXXXXXXXXXXXXXXXXXXXXX",
"XXXX XXXXXXXXXXXXXXXXXXXXXXXXXXX",
"XXXXXXXXXXXXXXXXXXXXX XXXXXXXXXX",
"XXXXXXXXXXXXXXXXXX.XXXXXX.XXX XX",
"XXXXXXXXX XXXXXXXXXXXXXXXXXXXXXX",
"XXXXXXXXXXXXXX XXXXXXXXXXXXXXXXX",
"X.XXXXXXXXXXXXXXXXXXXXXXXXXXXXXX",
"XXXXXXXXXXXXXXXXXXXXXXXXXXXXX XX",
"XXXXXXXXXXXXXXXXXXXXXXXXXXXXXXXX",
"XXXXX XXXXXXXXXXXXXXXXX XXXXXXXX",
"XXXXXXXXXXXX.XXXXXXXXXXXXXXX.XXX",
"XXXXXXXXXXXXXXXXXXXX.XXXXXXXXXXX",
"XXXXXXXXXXXXXXXXXXXXXXXXXXXXXXXX"
};
