/* XPM */
static char *_8c406be62554f4c929c36e8694ee2cc[] = {
/* columns rows colors chars-per-pixel */
"32 32 11 1 ",
"  c black",
". c #33712E",
"X c #3C723B",
"o c #754100",
"O c gray29",
"+ c #AA712A",
"@ c #D14A4A",
"# c #40AC38",
"$ c #4F8A4A",
"% c #EB8F1D",
"& c #417D8C",
/* pixels */
"$$$$$$$$$$$$$$$o$$$$$$$$$$$$$$$$",
"$$$$$$$$$$$ooooooooo$$$$$$$$$$$$",
"$$.$$$$$$oooooooooooo$$$$$$$$.$$",
"$$$$$$$$ooooooooooooooo$$$$$$$$$",
"$$$$$$$oooooooooooooooooo$$$$$$$",
"$$$$$$$oo+%%%%%%%%%%%oooo$$$$$$$",
"$$$$$$$oo+%%%%%%%%%%%%+$$$$$$$$$",
"$$$$$$#$+%%    %%%   %%+$$$#$$$$",
"$$$$$$$$+  OOO    OOO  +$$$$$$$$",
"$$$$$$$$+% OOO  % OOO %+$$$$$$$$",
"$$$$$$$$+%%    %%%   %%+$$$$$$$$",
"$$$$$$$$+%%%%%%%%%%%%%%+$$.$$#$$",
"$$#$$$.$$+%%%@%%%%%%%%+$$$$$$$$$",
"$$$$$$$$$+%%%%@@@%%%%%+$$$$$$$$$",
"$$$$$$$$$$+%%%%%%%%%%+$$$$.$$$$$",
"$$$$$$$$$$$++%%%%%%++$$$$$$$$$$$",
"$$$$$$$$$$$$$++++++$$$$$$$$#$$$$",
"$$$$$$#$$$$$$$$XXX$$#$$$$$$$$$$$",
"$$$$$$$$$$$$$XXXXXXX$$$$$$$$$$$$",
"$$$$$$$$$$$$XXXXXXXXX$$$$$$$$$$$",
"$$$$.$$$$$$XXXXXXXXXXX$$$$$$$$$$",
"$$$$$$$$$$$X$$XXXXX$$X$$$$$$$$$$",
"$$$$$$$$$$$X$$XXXXX$$X$$$#$$$.$$",
"$$$$$$$$$.$+$$$XXX$$$+$$$$$$$$$$",
"$$$$$$$$$$$+$$&&&&&$$+$$$$$$$$$$",
"$#$$$$$$$$$$$$&&&&&$$$$$$$$$$$$$",
"$$$$$$$$$$$$$$&&$&&$$$$$$$$$$.$$",
"$$$$$$$$$$$$$$&$$$&$$$$$$$$$$$$$",
"$$$$$.$$$$$$$$&$$$&$$$$.$$$$$$$$",
"$$$$$$$$$$$$#$+$$$+$$$$$$$$$#$$$",
"$$$$$$$$$$$$$++$$$++#$$$$$$$$$$$",
"$$$$$$$$$$$$$$$$$$$$$$$$$$$$$$$$"
};
